<?xml version="1.0" encoding="UTF-8"?>
<svg version="1.1" viewBox="0 0 2048 2048" width="1280" height="1280" xmlns="http://www.w3.org/2000/svg">
<path transform="translate(926,587)" d="m0 0h267l17 63-1 7-15 24-17 28-12 19-9 15-15 24-16 26-14 23-12 19-1 2 42 3 17 3 39 4 35 4h8l11-7 10-3h84v31l-1 1h-27l7 24 6 21 10 8 9 10 5 10 3 12v13l-3 13-6 11-8 9-10 7-13 5-6 1-54 1-9 11-11 13-9 11-11 13-9 11-14 17-11 13-9 11-12 14-9 11-11 13-11 14-8 9-9 11-11 13-9 11-12 14-11 14-8 9-9 11-11 13-9 11-11 13-11 14-8 9-1 2h-2l-2 4-9 11-12 14-9 11-11 13-18 22-11 13-9 11-11 13-9 11-12 14-11 14-13 15-9 11-11 13-6 8h-3l-17-63 1-9 9-26 4-10 8-23 11-30 9-26 9-25 11-30 9-26 9-25 11-30 10-29 11-31 11-30 4-12-26-2-140-13-26-3-3-6-15-56-1-7 8-17 11-25 7-15 1-4-7-9-8-6-9-4-4-1h-18l-11 4h-2v81h-43v-238h43v108l13-2 9-4 8-6 6-7 5-10 2-12 1-2h43l-1 15-4 15-8 16-6 8 1 3 11 7 18-39 11-25 7-15 11-24 1-3 1-25 11-1 9-19 11-25 8-16 9-21 7-15 13-28 11-25 7-15 8-18zm388 361-9 10-9 11-11 13-1 3h23l8-3 5-4 4-8v-11l-3-6-5-5z" fill="#FEE503"/>
<path transform="translate(1260,841)" d="m0 0h84v31l-1 1h-27l7 24 6 21 10 8 9 10 5 10 3 12v13l-3 13-6 11-8 9-10 7-13 5-6 1-54 1-9 11-11 13-9 11-11 13-9 11-14 17-11 13-9 11-12 14-9 11-11 13-11 14-8 9-9 11-11 13-9 11-12 14-11 14-8 9-9 11-11 13-9 11-11 13-11 14-8 9-1 2h-2l-2 4-9 11-12 14-9 11-11 13-18 22-11 13-9 11-11 13-9 11-12 14-11 14-13 15-9 11-11 13-6 8h-3l-16-59v-6l8-10 11-13 9-11 11-13 8-10 11-13 9-11 14-17 11-13 9-11 12-14 9-11 11-13 9-11 14-17 11-13 9-11 11-13 9-11 12-14 18-22 11-13 9-11 11-13 18-22 11-13 9-11 12-14 9-11 11-13 18-22 11-13 9-11 11-13 9-11 12-14 9-11 14-17 10-13-5-2-11-9-7-10-4-9-2-9v-15l3-12 5-9 9-10 7-6 10-5zm54 107-9 10-9 11-11 13-1 3h23l8-3 5-4 4-8v-11l-3-6-5-5z" fill="#605601"/>
<path transform="translate(170,788)" d="m0 0h96l15 2 16 5 15 8 10 8 6 5 11 14 8 15 5 16 1 5v69l-4 17-5 12-9 14-9 10-7 7-14 9-14 6-17 4h-105v-225zm44 45v137h52l10-2 10-4 10-8 7-9 4-9 2-9v-56l-4-13-7-11-9-8-12-6-8-2z" fill="#FEFEFE"/>
<path transform="translate(1113,840)" d="m0 0h27l17 3v2l9 3 14 9 10 9 8 9 7 11 6 13 3 11 1 7v23l-3 15-7 16-9 13-8 9-14 11-14 7-12 4-13 2h-17l-17-3-15-6-11-7-14-12-10-13-8-16-4-14-1-7v-21l3-15 5-13 7-12 8-10 9-9 15-10 14-6z" fill="#23231F"/>
<path transform="translate(830,774)" d="m0 0h33v91h128v-91h34v242l-1 1h-32l-1-1v-118h-128v119h-33l-1-1z" fill="#24231F"/>
<path transform="translate(1739,840)" d="m0 0h25l14 3 15 6 13 9 10 9 7 8 7 11 6 13 3 11 1 7v119l-3 15-6 15-8 12-11 12-8 7-13 8-16 6-11 2h-24l-4-1v-33l6 1h20l13-4 11-7 4-4h2l2-4 7-10 4-10 2-9v-111l-3-12-6-12-9-10-9-7-11-5-10-2h-15l-13 3-11 6-10 9-8 11-4 10-2 12 1 16 4 12 6 10 7 8 10 7 12 5 5 1h27v32l-1 1-10 1h-11l-15-2-15-5-15-8-10-9-5-5-7-8-8-13-5-13-3-16v-19l3-16 5-13 7-12 9-11 7-7 13-9 12-6 13-4z" fill="#222221"/>
<path transform="translate(442,841)" d="m0 0h20l16 3 16 7 13 9 13 13 9 14 5 11 4 16 1 13v86l-1 1h-43l-1-95-4-12-7-9-8-7-12-5-6-1h-10l-12 3-11 7-8 9-5 11-1 4v17l4 12 7 9 8 7 8 4 9 2h13l10-3 5-1v45l-5 2-6 1h-22l-15-3-12-5-12-7-10-9-5-5-7-8-6-10-6-16-2-10v-27l4-16 8-16 8-11 4-5 11-9 11-7 14-6z" fill="#FEFEFE"/>
<path transform="translate(658,776)" d="m0 0h43v108l13-2 9-4 8-6 6-7 5-10 2-12 1-2h43l-1 15-4 15-8 16-6 8 1 3 11 8-9 20-8 18-3 5-4-4-6-7-10-6-9-3h-18l-11 4h-2v81h-43z" fill="#FEFEFE"/>
<path transform="translate(1260,841)" d="m0 0h84v31l-1 1h-27l7 24 6 21 10 8 9 10 5 10 3 12v13l-3 13-6 11-8 9-10 7-13 5-6 1h-53l-33-1v-31l83-1 8-3 5-5 3-6v-11l-3-6-7-6-6-2-45-1-13-4-9-5-8-7-7-10-4-9-2-9v-15l3-12 5-9 9-10 7-6 10-5z" fill="#222221"/>
<path transform="translate(734,1013)" d="m0 0 37 3 61 6 67 6 61 6 7 1-3 10-12 34-7 18-17-1-150-14-26-3-3-6-15-56z" fill="#615601"/>
<path transform="translate(1527,840)" d="m0 0h53l17 4 16 8 11 8 8 7 11 14 7 14 4 13 2 12v97h-32l-1-90-2-14-5-12-6-9-7-7-11-7-11-4-6-1-16-1v145h-32z" fill="#212121"/>
<path transform="translate(1192,589)" d="m0 0 2 1 16 60-1 7-15 24-17 28-12 19-9 15-15 24-16 26-14 23-13 20-1 1-13-1-38-4-2-1 1-4 12-20 10-16 16-26 13-21 16-26 12-19 12-20 12-19 12-20 12-19 13-21z" fill="#615701"/>
<path transform="translate(1364,791)" d="m0 0h32v73h48v32h-48l1 40 3 12 6 12 11 12 14 8 11 3h26v32l-1 1-9 1h-12l-19-3-15-6-14-9-12-11-10-13-7-14-4-14-1-6z" fill="#212121"/>
<path transform="translate(1119,872)" d="m0 0h15l12 3 12 6 10 9 7 8 5 11 3 13v12l-3 13-7 14-9 10-10 7-9 4-8 2h-20l-14-4-11-7-9-8-7-11-4-10-2-13 1-14 4-13 7-11 9-9 11-7 12-4z" fill="#FEE503"/>
<path transform="translate(633,841)" d="m0 0h11v43l-15 3-11 6-6 5-7 10-4 13-1 93h-43v-97l3-15 6-15 8-12 11-12 10-8 14-8 17-5z" fill="#FEFEFE"/>
<path transform="translate(1475,840)" d="m0 0h33v176l-1 1h-31l-1-1z" fill="#272727"/>
<path transform="translate(1266,872)" d="m0 0h77v1h-27l7 24 5 19v2l-11-3-7-1-42-1-8-3-7-8-2-5v-9l4-8 6-5z" fill="#645A05"/>
<path transform="translate(1265,873)" d="m0 0h39l-6 8-12 14-9 11-5 6-4 1-8-3-7-8-2-5v-9l4-8 6-5z" fill="#FEE503"/>
<path transform="translate(1486,765)" d="m0 0h10l6 3 5 5 3 7v7l-4 8-6 5-6 2-10-1-8-6-3-7v-10l4-7 6-5z" fill="#242322"/>
</svg>
